<svg width="19" height="18" viewBox="0 0 19 18" fill="none" xmlns="http://www.w3.org/2000/svg">
  <path fill-rule="evenodd" clip-rule="evenodd" d="M7.91667 0C3.55144 0 0 3.55145 0 7.91667C0 11.3071 2.14243 14.2066 5.14457 15.3325C5.13994 15.3276 5.13531 15.3227 5.13069 15.3177C6.54176 16.6208 8.42797 17.4168 10.5002 17.4168C14.8725 17.4168 18.4168 13.8725 18.4168 9.50016C18.4168 6.0968 16.2694 3.19515 13.2556 2.07618C11.8469 0.78731 9.97197 0 7.91667 0ZM10.2153 1.58853C9.49844 1.32896 8.72444 1.1875 7.91667 1.1875C4.19321 1.1875 1.1875 4.19322 1.1875 7.91667C1.1875 9.85955 2.00587 11.607 3.31756 12.834C2.84649 11.8208 2.5835 10.6912 2.5835 9.50016C2.5835 5.22315 5.97488 1.73849 10.2153 1.58853ZM5.74192 4.74192C7.00389 3.47996 8.71548 2.771 10.5002 2.771C12.2849 2.771 13.9964 3.47996 15.2584 4.74192C16.5204 6.00389 17.2293 7.71548 17.2293 9.50016C17.2293 11.2849 16.5204 12.9964 15.2584 14.2584C13.9964 15.5204 12.2849 16.2293 10.5002 16.2293C8.71548 16.2293 7.00389 15.5204 5.74192 14.2584C4.47996 12.9964 3.771 11.2849 3.771 9.50016C3.771 7.71548 4.47996 6.00389 5.74192 4.74192ZM10.92 5.71573C10.8087 5.60439 10.6576 5.54183 10.5002 5.54183C10.3427 5.54183 10.1917 5.60439 10.0803 5.71573C9.96897 5.82709 9.90641 5.97811 9.90641 6.13558V8.90641H7.13558C6.97811 8.90641 6.82709 8.96897 6.71573 9.08032C6.60439 9.19167 6.54183 9.34269 6.54183 9.50016C6.54183 9.65764 6.60439 9.80866 6.71573 9.92001C6.82709 10.0314 6.97811 10.0939 7.13558 10.0939H9.90641V12.8647C9.90641 13.0222 9.96897 13.1732 10.0803 13.2846C10.1917 13.3959 10.3427 13.4585 10.5002 13.4585C10.6576 13.4585 10.8087 13.3959 10.92 13.2846C11.0314 13.1732 11.0939 13.0222 11.0939 12.8647V10.0939H13.8647C14.0222 10.0939 14.1732 10.0314 14.2846 9.92001C14.3959 9.80866 14.4585 9.65764 14.4585 9.50016C14.4585 9.34269 14.3959 9.19167 14.2846 9.08032C14.1732 8.96897 14.0222 8.90641 13.8647 8.90641H11.0939V6.13558C11.0939 5.97811 11.0314 5.82709 10.92 5.71573Z" fill="#5D25A6"/>
</svg>
