<svg width="14" height="15" viewBox="0 0 14 15" fill="none" xmlns="http://www.w3.org/2000/svg">
<path d="M2.16675 0.333374C1.33975 0.333374 0.666748 1.00637 0.666748 1.83337V12.1667C0.666748 12.9937 1.33975 13.6667 2.16675 13.6667H9.00008V13.6498C8.20308 13.5704 7.48911 13.2084 6.95711 12.6667H2.16675C1.89108 12.6667 1.66675 12.4424 1.66675 12.1667V1.83337C1.66675 1.55771 1.89108 1.33337 2.16675 1.33337H6.00008V4.16671C6.00008 4.99371 6.67308 5.66671 7.50008 5.66671H10.3334V7.15369C10.6984 7.26869 11.0344 7.44788 11.3334 7.67322V5.16671C11.3334 5.02854 11.2774 4.90365 11.1869 4.81319L6.8536 0.479859C6.7631 0.3894 6.63808 0.333374 6.50008 0.333374H2.16675ZM7.00008 2.04041L9.62638 4.66671H7.50008C7.22441 4.66671 7.00008 4.44238 7.00008 4.16671V2.04041ZM3.83341 7.33337C3.55708 7.33337 3.33341 7.55704 3.33341 7.83337C3.33341 8.10971 3.55708 8.33337 3.83341 8.33337H6.66675C6.98408 7.91104 7.39932 7.56637 7.87899 7.33337H3.83341ZM9.33341 7.66671C7.86308 7.66671 6.66675 8.86304 6.66675 10.3334C6.66675 11.8037 7.86308 13 9.33341 13C9.88841 13 10.4035 12.8291 10.8308 12.5378L12.4799 14.1869C12.5776 14.2849 12.7054 14.3334 12.8334 14.3334C12.9614 14.3334 13.0893 14.2846 13.1869 14.1869C13.3819 13.9916 13.3819 13.6752 13.1869 13.4799L11.5385 11.8308C11.8295 11.4034 12.0001 10.8884 12.0001 10.3334C12.0001 8.86304 10.8037 7.66671 9.33341 7.66671V7.66671ZM9.33341 8.66671C10.2524 8.66671 11.0001 9.41438 11.0001 10.3334C11.0001 11.2524 10.2524 12 9.33341 12C8.41441 12 7.66675 11.2524 7.66675 10.3334C7.66675 9.41438 8.41441 8.66671 9.33341 8.66671V8.66671ZM3.83341 9.66671C3.55708 9.66671 3.33341 9.89038 3.33341 10.1667C3.33341 10.443 3.55708 10.6667 3.83341 10.6667H6.01701C6.00601 10.557 6.00008 10.446 6.00008 10.3334C6.00008 10.105 6.02282 9.88204 6.06649 9.66671H3.83341Z" fill="#B5B5B5"/>
</svg>
