<svg width="15" height="17" viewBox="0 0 15 17" fill="none" xmlns="http://www.w3.org/2000/svg">
<path d="M2.73962 0.583496C1.75796 0.583496 0.958374 1.38308 0.958374 2.36475V14.6356C0.958374 15.6173 1.75796 16.4168 2.73962 16.4168H8.67712C9.65879 16.4168 10.4584 15.6173 10.4584 14.6356V10.4793H9.51595L9.27087 10.6533V14.6356C9.27087 14.9641 9.00567 15.2293 8.67712 15.2293H2.73962C2.41108 15.2293 2.14587 14.9641 2.14587 14.6356V2.36475C2.14587 2.0362 2.41108 1.771 2.73962 1.771H8.67712C9.00567 1.771 9.27087 2.0362 9.27087 2.36475V2.9585H10.4584V2.36475C10.4584 1.38308 9.65879 0.583496 8.67712 0.583496H2.73962ZM7.48962 3.75016C6.51291 3.75016 5.70837 4.5547 5.70837 5.53141V9.48975V11.0731C5.70848 11.2954 5.83274 11.499 6.03038 11.6007C6.22802 11.7025 6.46594 11.6853 6.64693 11.5563L9.26314 9.68767H12.2396C13.2163 9.68767 14.0209 8.88314 14.0209 7.90642V5.53141C14.0209 4.5547 13.2163 3.75016 12.2396 3.75016H7.48962ZM7.48962 4.93766H12.2396C12.5747 4.93766 12.8334 5.19634 12.8334 5.53141V7.90642C12.8334 8.24149 12.5747 8.50017 12.2396 8.50017H9.07296C8.94932 8.50022 8.82877 8.53887 8.72815 8.61072L6.89587 9.9196V9.48975V5.53141C6.89587 5.19634 7.15455 4.93766 7.48962 4.93766ZM4.71879 12.8543C4.50466 12.8513 4.30549 12.9638 4.19755 13.1488C4.0896 13.3337 4.0896 13.5625 4.19755 13.7474C4.30549 13.9324 4.50466 14.0449 4.71879 14.0418H6.69796C6.91209 14.0449 7.11126 13.9324 7.21921 13.7474C7.32715 13.5625 7.32715 13.3337 7.21921 13.1488C7.11126 12.9638 6.91209 12.8513 6.69796 12.8543H4.71879Z" fill="#8094AE"/>
</svg>
