<svg width="19" height="19" viewBox="0 0 19 19" fill="none" xmlns="http://www.w3.org/2000/svg">
<path d="M9.49998 0C4.26172 0 0 4.26172 0 9.49997C0 14.7382 4.26172 18.9999 9.49998 18.9999C14.7382 18.9999 19 14.7382 19 9.49997C19 4.26172 14.7382 0 9.49998 0ZM9.49998 1.425C13.9681 1.425 17.575 5.03185 17.575 9.49997C17.575 13.9681 13.9681 17.5749 9.49998 17.5749C5.03185 17.5749 1.425 13.9681 1.425 9.49997C1.425 5.03185 5.03185 1.425 9.49998 1.425ZM7.59257 4.74256C7.30251 4.74263 7.04144 4.91851 6.93242 5.1873C6.8234 5.45609 6.88818 5.76413 7.09623 5.96624L10.3925 9.26247L7.09623 12.5587C6.9101 12.7374 6.83513 13.0028 6.90022 13.2525C6.96531 13.5021 7.1603 13.6971 7.40999 13.7622C7.65967 13.8273 7.92504 13.7523 8.10375 13.5662L11.9037 9.76623C12.1819 9.48798 12.1819 9.03697 11.9037 8.75871L8.10375 4.95873C7.96957 4.82055 7.78517 4.74257 7.59257 4.74256Z" fill="#5D25A6"/>
</svg>
