<svg width="16" height="17" viewBox="0 0 16 17" fill="none" xmlns="http://www.w3.org/2000/svg">
<path fill-rule="evenodd" clip-rule="evenodd" d="M4.63089 1.83408L6.79237 3.99556C6.90656 4.10975 6.97072 4.26463 6.97072 4.42613V6.8618C6.97072 7.19809 6.69809 7.47072 6.3618 7.47072H3.92613C3.76463 7.47072 3.60975 7.40656 3.49556 7.29237L1.33408 5.13089C1.2012 5.68817 1.1813 6.26962 1.27922 6.84034C1.42828 7.70909 1.843 8.51027 2.46627 9.13354C3.08955 9.75682 3.89072 10.1715 4.75948 10.3206C5.62823 10.4696 6.52182 10.3457 7.31721 9.96583C7.55007 9.85462 7.82774 9.90227 8.0102 10.0847L12.8815 14.9561C13.0903 15.1649 13.3735 15.2822 13.6688 15.2822C13.9641 15.2822 14.2473 15.1649 14.4561 14.9561C14.6649 14.7473 14.7822 14.4641 14.7822 14.1688C14.7822 13.8735 14.6649 13.5903 14.4561 13.3815L9.58473 8.5102C9.40227 8.32774 9.35462 8.05007 9.46583 7.81721C9.84571 7.02182 9.96965 6.12823 9.82059 5.25948C9.67154 4.39072 9.25682 3.58955 8.63354 2.96627C8.01027 2.343 7.20909 1.92828 6.34034 1.77922C5.76962 1.6813 5.18817 1.7012 4.63089 1.83408ZM3.25776 1.03505C4.28041 0.546642 5.42931 0.387287 6.54628 0.578928C7.66325 0.770569 8.69333 1.30378 9.49468 2.10513C10.296 2.90649 10.8292 3.93657 11.0209 5.05354C11.1878 6.02646 11.0884 7.02362 10.7373 7.94045L15.3172 12.5204C15.7544 12.9576 16 13.5505 16 14.1688C16 14.7871 15.7544 15.38 15.3172 15.8172C14.88 16.2544 14.2871 16.5 13.6688 16.5C13.0505 16.5 12.4576 16.2544 12.0204 15.8172L7.44045 11.2373C6.52362 11.5884 5.52646 11.6878 4.55354 11.5209C3.43657 11.3292 2.40649 10.796 1.60513 9.99468C0.803779 9.19333 0.270569 8.16325 0.0789282 7.04628C-0.112713 5.92931 0.0466416 4.78041 0.535048 3.75776C0.620239 3.57939 0.786718 3.45346 0.981547 3.42004C1.17638 3.38661 1.37531 3.44984 1.51509 3.58962L4.17835 6.25288H5.75288V4.67835L3.08962 2.01509C2.94984 1.87531 2.88661 1.67638 2.92004 1.48155C2.95346 1.28672 3.07939 1.12024 3.25776 1.03505Z" fill="#202020"/>
</svg>
